<svg xmlns="http://www.w3.org/2000/svg" xmlns:xlink="http://www.w3.org/1999/xlink" version="1.1" width="1000" height="1000" viewBox="0 0 1000 1000" xml:space="preserve">
<desc>Created with Fabric.js 3.5.0</desc>
<defs>
</defs>
<rect x="0" y="0" width="100%" height="100%" fill="#ffffff"/>
<g transform="matrix(56.8182 0 0 56.8182 500.0001 500.0001)" id="519862">
<g style="" vector-effect="non-scaling-stroke">
		<g transform="matrix(1 0 0 1 0.0017 -0.0007)">
<path style="stroke: none; stroke-width: 1; stroke-dasharray: none; stroke-linecap: butt; stroke-dashoffset: 0; stroke-linejoin: miter; stroke-miterlimit: 4; is-custom-font: none; font-file-url: none; fill: rgb(255,0,0); fill-rule: nonzero; opacity: 1;" transform=" translate(-8.0017, -7.9993)" d="M 7.938 2.016 A 0.13 0.13 0 0 1 8.002 2 a 0.13 0.13 0 0 1 0.063 0.016 a 0.146 0.146 0 0 1 0.054 0.057 l 6.857 11.667 c 0.036 0.06 0.035 0.124 0.002 0.183 a 0.163 0.163 0 0 1 -0.054 0.06 a 0.116 0.116 0 0 1 -0.066 0.017 H 1.146 a 0.115 0.115 0 0 1 -0.066 -0.017 a 0.163 0.163 0 0 1 -0.054 -0.06 a 0.176 0.176 0 0 1 0.002 -0.183 L 7.884 2.073 a 0.147 0.147 0 0 1 0.054 -0.057 z m 1.044 -0.45 a 1.13 1.13 0 0 0 -1.96 0 L 0.165 13.233 c -0.457 0.778 0.091 1.767 0.98 1.767 h 13.713 c 0.889 0 1.438 -0.99 0.98 -1.767 L 8.982 1.566 z" stroke-linecap="round"/>
</g>
		<g transform="matrix(1 0 0 1 0.002 0.9975)">
<path style="stroke: none; stroke-width: 1; stroke-dasharray: none; stroke-linecap: butt; stroke-dashoffset: 0; stroke-linejoin: miter; stroke-miterlimit: 4; is-custom-font: none; font-file-url: none; fill: rgb(255,0,0); fill-rule: nonzero; opacity: 1;" transform=" translate(-8.002, -8.9975)" d="M 7.002 12 a 1 1 0 1 1 2 0 a 1 1 0 0 1 -2 0 z M 7.1 5.995 a 0.905 0.905 0 1 1 1.8 0 l -0.35 3.507 a 0.552 0.552 0 0 1 -1.1 0 L 7.1 5.995 z" stroke-linecap="round"/>
</g>
</g>
</g>
</svg>